<?xml version="1.0" encoding="UTF-8"?><svg version="1.1" width="25px" height="25px" viewBox="0 0 24.999999999999986 24.999999999999986" xmlns="http://www.w3.org/2000/svg" xmlns:xlink="http://www.w3.org/1999/xlink"><defs><clipPath id="i0"><path d="M13.3748368,0.0159554276 C13.8848976,-0.0782122619 14.3769534,0.25424871 14.4576384,0.754588525 C14.5348153,1.23299251 14.1879841,1.68024677 13.6964355,1.77103321 L9.57820515,2.70083348 C9.39384273,2.73485727 9.2604526,2.89085948 9.2604526,3.07243237 L9.26655211,3.60875508 C9.3234561,6.07603302 9.77816638,8.07459073 10.6160785,10.4803188 L11.1026397,11.877534 C11.2813808,12.3905112 10.9963418,12.9466416 10.4661202,13.1194655 C10.3588925,13.1545037 10.2497205,13.1710718 10.1424928,13.1710718 C9.71949895,13.1710718 9.32499212,12.9128714 9.18251489,12.5035716 L7.23419892,7.33216782 L5.28588294,12.5035716 C5.10359154,13.0273266 4.50857685,13.3036166 3.96943724,13.1081806 C3.45388182,12.9212822 3.19838645,12.3580513 3.37416896,11.853189 L3.85231935,10.4803188 C4.75008232,7.90271075 5.20794523,5.79251765 5.20794523,3.07243237 C5.20794523,2.89085948 5.0745551,2.73485727 4.89023495,2.70083348 L0.771877826,1.77103321 C0.28003339,1.6802045 -0.0667978759,1.23248532 0.0108862414,0.753870011 C0.0919938699,0.253783789 0.583965102,-0.0778318718 1.09364561,0.0159554276 L4.51702996,0.548924263 C6.31762777,0.829314053 8.15081233,0.829314053 9.95136787,0.548966528 Z"></path></clipPath><clipPath id="i1"><path d="M1.75820544,0 C2.7292569,0 3.51641088,0.787153972 3.51641088,1.75820544 C3.51641088,2.72921464 2.7292569,3.51636861 1.75820544,3.51636861 C0.787196237,3.51636861 0,2.72921464 0,1.75820544 C0,0.787153972 0.787196237,0 1.75820544,0 Z"></path></clipPath><clipPath id="i2"><path d="M12.5,0 C15.8388532,0 18.9779171,1.30021572 21.3388295,3.66117045 C23.699742,6.02208291 25,9.16110452 25,12.5 C25,15.8388532 23.699742,18.9779171 21.3388295,21.3388295 C18.9779171,23.699742 15.8388532,25 12.5,25 C9.16110452,25 6.02208291,23.699742 3.66117045,21.3388295 C1.30021572,18.9779171 0,15.8388532 0,12.5 C0,9.16110452 1.30021572,6.02208291 3.66117045,3.66117045 C6.02208291,1.30021572 9.16110452,0 12.5,0 Z M12.5,1.69062279 C6.53966708,1.69062279 1.69062279,6.53966708 1.69062279,12.5 C1.69062279,18.4603329 6.53966708,23.3093772 12.5,23.3093772 C18.4603329,23.3093772 23.3093772,18.4603329 23.3093772,12.5 C23.3093772,6.53966708 18.4603329,1.69062279 12.5,1.69062279 Z"></path></clipPath></defs><g transform="translate(5.265801084652593 7.503596625030581)"><g clip-path="url(#i0)"><polygon points="-6.5399075e-16,3.33066907e-16 14.4683947,3.33066907e-16 14.4683947,13.1710718 -6.5399075e-16,13.1710718 -6.5399075e-16,3.33066907e-16" stroke="none" fill="#FFFFFF"></polygon></g></g><g transform="translate(10.741794562280802 4.325331615660559)"><g clip-path="url(#i1)"><polygon points="0,0 3.51641088,0 3.51641088,3.51636861 0,3.51636861 0,0" stroke="none" fill="#FFFFFF"></polygon></g></g><g clip-path="url(#i2)"><polygon points="0,0 25,0 25,25 0,25 0,0" stroke="none" fill="#FFFFFF" opacity="36.3054548%"></polygon></g></svg>