<svg width="31" height="18" viewBox="0 0 31 18" fill="none" xmlns="http://www.w3.org/2000/svg">
<path d="M30.9999 17.6166H27.6234L20.7529 7.63385C19.4023 7.92746 18.8151 8.89637 18.8151 10.5699V17.6166H15.5267V10.5993C15.5267 7.95682 16.7892 5.98964 19.3142 5.54922L15.4973 0H18.9032L25.1864 9.13126C26.5958 8.89637 27.2417 8.0449 27.2417 6.25389V0H30.5301V6.37133C30.5301 9.42487 28.7978 10.8636 26.6838 11.3333L30.9999 17.6166Z" fill="black"/>
<path d="M11.0573 18H8.75731L4.07731 11.2C3.15731 11.4 2.75731 12.06 2.75731 13.2V18H0.517315V13.22C0.517315 11.42 1.37731 10.08 3.09731 9.78L0.497314 6H2.81731L7.09731 12.22C8.05731 12.06 8.49732 11.48 8.49732 10.26V6H10.7373V10.34C10.7373 12.42 9.55731 13.4 8.11731 13.72L11.0573 18Z" fill="black"/>
</svg>
