<svg width="24" height="24" viewBox="0 0 24 24" xmlns="http://www.w3.org/2000/svg">
    <g fill="none" fill-rule="evenodd">
        <rect stroke="#635F5F" fill="#000" x=".5" y=".5" width="23" height="23" rx="4"/>
        <path d="M12.5 5c-2.036 0-2.292.008-3.092.042-.798.034-1.343.152-1.82.325a3.71 3.71 0 0 0-1.329.808c-.417.389-.673.78-.865 1.24-.186.445-.313.954-.349 1.699C5.01 9.86 5 10.099 5 12c0 1.901.01 2.139.045 2.886.037.745.163 1.253.349 1.699.191.46.448.85.865 1.24.416.389.835.629 1.328.808.477.173 1.022.29 1.82.325.8.034 1.056.042 3.093.042s2.292-.008 3.092-.042c.798-.034 1.344-.152 1.82-.325.494-.18.912-.419 1.329-.808.417-.39.673-.78.865-1.24.185-.446.311-.954.349-1.7.036-.746.045-.984.045-2.885 0-1.901-.01-2.14-.045-2.886-.038-.746-.164-1.254-.349-1.7a3.422 3.422 0 0 0-.865-1.24 3.702 3.702 0 0 0-1.329-.807c-.478-.173-1.023-.29-1.821-.325-.8-.034-1.055-.042-3.093-.042h.003zm-.672 1.261h.673c2.002 0 2.24.007 3.03.04.732.032 1.128.146 1.393.242.35.127.6.278.862.523s.425.479.561.805c.103.247.225.617.258 1.3.036.738.044.96.044 2.827 0 1.869-.008 2.09-.044 2.828-.033.683-.155 1.053-.258 1.3-.136.326-.299.559-.561.804a2.342 2.342 0 0 1-.862.523c-.264.096-.661.21-1.393.241-.79.034-1.028.041-3.03.041-2.003 0-2.24-.007-3.031-.04-.731-.032-1.128-.146-1.393-.242-.35-.127-.6-.279-.862-.524a2.162 2.162 0 0 1-.561-.804c-.103-.247-.225-.617-.259-1.3-.036-.737-.043-.96-.043-2.828 0-1.87.007-2.09.043-2.828.034-.683.156-1.053.259-1.3a2.16 2.16 0 0 1 .56-.805 2.35 2.35 0 0 1 .863-.524c.265-.096.662-.21 1.393-.24.692-.03.96-.039 2.358-.04v.001zm4.676 1.163c-.497 0-.9.376-.9.84 0 .463.403.84.9.84s.9-.377.9-.84c0-.464-.403-.84-.9-.84zm-4.003.981c-2.127 0-3.852 1.61-3.852 3.595s1.725 3.594 3.852 3.594 3.85-1.609 3.85-3.594c0-1.985-1.723-3.595-3.85-3.595zm0 1.262c1.38 0 2.5 1.044 2.5 2.333 0 1.289-1.12 2.333-2.5 2.333-1.381 0-2.5-1.044-2.5-2.333 0-1.289 1.119-2.333 2.5-2.333z" fill="#FFF" fill-rule="nonzero"/>
    </g>
</svg>
