<svg width="20" height="20" viewBox="0 0 20 20" fill="none" xmlns="http://www.w3.org/2000/svg">
<path d="M1.02506 18.9791C0.863083 18.8172 0.794923 18.5785 0.854599 18.3569L1.92878 14.3425C1.21266 13.0129 0.837532 11.5128 0.837532 9.99571C0.837532 4.94148 4.94665 0.833313 10.0021 0.833313C15.0575 0.833313 19.1666 4.94148 19.1666 9.99571C19.1666 15.0499 15.0575 19.1581 10.0021 19.1581C8.45901 19.1581 6.95008 18.7746 5.60311 18.0416L1.64743 19.1411C1.58776 19.1581 1.53659 19.1666 1.47692 19.1666C1.30642 19.1666 1.14441 19.0985 1.02506 18.9791ZM6.20533 16.467C7.34857 17.1398 8.66208 17.4965 9.99992 17.4965C14.1351 17.4965 17.4999 14.1324 17.4999 9.99824C17.4999 5.86406 14.1351 2.49998 9.99992 2.49998C5.86478 2.49998 2.49992 5.86406 2.49992 9.99824C2.49992 11.3196 2.84856 12.6084 3.50532 13.7433C3.5864 13.8811 3.61073 14.0514 3.57019 14.2054L2.75938 17.2371L5.74316 16.4103C5.79181 16.3941 5.84857 16.386 5.89722 16.386C6.00262 16.386 6.10803 16.4184 6.20533 16.467Z" fill="black"/>
<path d="M10.5859 13.8559C10.1301 13.6609 9.6744 13.4008 9.23314 13.0756C8.79911 12.7577 8.37233 12.3965 7.98171 12.0063C7.59108 11.6089 7.22937 11.1899 6.91108 10.7564C6.58556 10.3012 6.32514 9.8532 6.13706 9.41246C5.93451 8.9356 5.83325 8.46597 5.83325 8.01801C5.83325 7.7001 5.89111 7.39664 5.99961 7.11486C6.11536 6.81863 6.30344 6.55129 6.54939 6.32009C7.01235 5.8649 7.67789 5.69874 8.20595 5.95162C8.3868 6.03109 8.53871 6.16115 8.65445 6.33455L9.49354 7.51224C9.58035 7.62784 9.64548 7.75067 9.69611 7.8735C9.75398 8.018 9.79015 8.16252 9.79015 8.2998C9.79015 8.48766 9.7395 8.67551 9.63823 8.84169C9.57313 8.95007 9.47908 9.08012 9.3561 9.20295L9.26206 9.30409C9.30546 9.36189 9.35609 9.43413 9.43566 9.52084C9.58757 9.69424 9.75395 9.8821 9.9348 10.0627C10.1156 10.2361 10.2965 10.4095 10.4773 10.5613C10.5641 10.6335 10.6365 10.6913 10.6944 10.7275L10.7956 10.6263C10.9258 10.4962 11.0561 10.3951 11.1863 10.3301C11.425 10.1783 11.7939 10.1422 12.1194 10.2795C12.2352 10.3228 12.3509 10.3879 12.4739 10.4746L13.6819 11.3271C13.8483 11.4427 13.9785 11.6017 14.0653 11.7823C14.1376 11.963 14.1666 12.1219 14.1666 12.2881C14.1666 12.5049 14.1159 12.7144 14.0219 12.9167C13.9279 13.1045 13.8193 13.2707 13.6891 13.4225C13.4577 13.6753 13.19 13.8632 12.9007 13.986C12.6113 14.1088 12.3003 14.1666 11.982 14.1666C11.5335 14.1666 11.0705 14.0655 10.5859 13.8559Z" fill="black"/>
</svg>
