
<svg width="98" height="24" viewBox="0 0 98 24" fill="none" xmlns="http://www.w3.org/2000/svg">
<g clip-path="url(#clip0_1_39)">
<path d="M42.3992 9.02703H33.7159C33.5951 9.02703 33.5024 8.91971 33.5226 8.80048L34.7107 2.15898C34.7268 2.06757 34.8073 2 34.904 2H39.0765C39.1973 2 39.29 2.10731 39.2698 2.22655L38.8349 4.67091C38.8147 4.79014 38.9074 4.89746 39.0282 4.89746H48.2391C48.36 4.89746 48.4526 5.00477 48.4325 5.12401L47.7437 8.95946C47.7437 8.95946 47.7357 8.99523 47.7276 9.00715L41.7911 21.8211C41.7427 21.9245 41.638 21.9881 41.5253 21.9881H36.8976C36.7526 21.9881 36.66 21.841 36.7204 21.7099L42.5805 9.28935C42.6409 9.16216 42.5442 9.01113 42.4032 9.01113L42.3992 9.02703Z" fill="white"/>
<path d="M16.6714 13.4626H21.0131C21.1339 13.4626 21.2266 13.57 21.2064 13.6892L19.7525 21.8331C19.7364 21.9245 19.6558 21.9921 19.5592 21.9921H15.0967C15.0362 21.9921 14.9879 21.9364 15 21.8768L16.4741 13.6177C16.4902 13.5262 16.5707 13.4587 16.6674 13.4587L16.6714 13.4626ZM26.5147 13.2639C27.1188 9.87759 25.9951 9.02703 22.9866 9.02703H17.0299C16.909 9.02703 16.8164 8.91972 16.8366 8.80048L17.5051 5.06439C17.5212 4.97298 17.6018 4.90541 17.6984 4.90541H24.2069C30.1958 4.90541 32.3868 6.95231 31.2833 13.1288L29.7246 21.845C29.7085 21.9364 29.628 22.004 29.5313 22.004H25.1896C25.0688 22.004 24.9762 21.8967 24.9963 21.7774L26.5147 13.2719V13.2639Z" fill="white"/>
<path d="M51.7431 4.90143C51.6464 4.90143 51.5659 4.969 51.5498 5.06041L48.5654 21.7695C48.5452 21.8887 48.6379 21.996 48.7587 21.996H53.0722C53.1688 21.996 53.2494 21.9285 53.2655 21.837L55.0215 12.0159C55.0497 11.8649 55.2551 11.837 55.3235 11.9762L60.7083 21.9046C60.7446 21.9642 60.809 22 60.8775 22H65.6823C65.8354 22 65.932 21.8331 65.8515 21.7019L62.1784 14.8855C62.1099 14.7742 62.1663 14.6312 62.2952 14.5954C64.752 13.9356 66.9792 11.7178 67.6115 8.17249L68.1552 5.12798C68.1754 5.00874 68.0827 4.90143 67.9619 4.90143H63.6202C63.5236 4.90143 63.443 4.969 63.4269 5.06041L62.8389 8.3434C62.4966 10.2671 61.5541 11.2329 60.2895 11.6065C60.2089 11.6304 60.1203 11.5946 60.072 11.527L56.2902 5.04849C56.2378 4.95707 56.1411 4.90143 56.0324 4.90143H51.7471H51.7431Z" fill="white"/>
<path d="M74.0314 17.8744H75.578C75.6988 17.8744 75.7914 17.9817 75.7713 18.101L75.1027 21.837C75.0866 21.9285 75.006 21.996 74.9094 21.996H68.5821C68.4613 21.996 68.3687 21.8887 68.3888 21.7695L71.3732 5.06041C71.3893 4.969 71.4699 4.90143 71.5665 4.90143H75.88C76.0008 4.90143 76.0935 5.00874 76.0733 5.12798L73.8381 17.6439C73.8179 17.7631 73.9106 17.8704 74.0314 17.8704V17.8744Z" fill="white"/>
<path d="M81.3534 9.02703H79.8069C79.686 9.02703 79.5934 8.91972 79.6135 8.80048L80.2821 5.06439C80.2982 4.97298 80.3788 4.90541 80.4754 4.90541H86.8027C86.9235 4.90541 87.0161 5.01272 86.996 5.13196L84.0116 21.841C83.9955 21.9324 83.9149 22 83.8183 22H79.5048C79.384 22 79.2913 21.8927 79.3115 21.7735L81.5467 9.25756C81.5669 9.13832 81.4742 9.03101 81.3534 9.03101V9.02703Z" fill="white"/>
</g>
<defs>
<clipPath id="clip0_1_39">
<rect width="72" height="20" fill="white" transform="translate(15 2)"/>
</clipPath>
</defs>
</svg>
