<svg width="18" height="18" viewBox="0 0 18 18" fill="none" xmlns="http://www.w3.org/2000/svg">
<g clip-path="url(#clip0_870_263)">
<path d="M17.5 9C17.5 4.30558 13.6944 0.5 9 0.5C4.30558 0.5 0.5 4.30558 0.5 9C0.5 13.6944 4.30558 17.5 9 17.5C13.6944 17.5 17.5 13.6944 17.5 9Z" fill="black" fill-opacity="0.483923"/>
<mask id="mask0_870_263" style="mask-type:luminance" maskUnits="userSpaceOnUse" x="3" y="5" width="10" height="8">
<path d="M3 5H13V13H3V5Z" fill="white"/>
</mask>
<g mask="url(#mask0_870_263)">
<path d="M11.211 6.552C11.211 6.227 10.995 6.008 10.561 5.896C10.4283 5.85983 10.2915 5.84101 10.154 5.84C9.417 5.84 8.696 6.357 7.992 7.392C7.905 7.509 7.558 8.142 6.952 9.288L8.61 8.664C9.20045 8.43244 9.76654 8.14303 10.3 7.8C10.908 7.395 11.211 6.979 11.211 6.552ZM13 6.64C13 7.04 12.832 7.397 12.496 7.712C11.921 8.245 11.066 8.757 9.927 9.248C9.764 9.318 8.908 9.64 7.357 10.216C7.011 10.344 6.821 10.416 6.789 10.432C6.637 10.507 6.545 10.602 6.512 10.72C6.5008 10.7888 6.49544 10.8583 6.496 10.928C6.496 11.621 6.935 11.968 7.813 11.968C8.323 11.968 8.946 11.824 9.683 11.536C9.856 11.386 10.133 11.192 10.513 10.952C10.989 11.133 11.282 11.336 11.39 11.56C11.4208 11.6108 11.438 11.6686 11.44 11.728C11.44 11.963 11.146 12.203 10.561 12.448C9.466 12.816 8.491 13 7.634 13C6.637 13 5.846 12.76 5.26 12.28C4.816 11.918 4.56 11.512 4.496 11.064C4.474 10.963 4.263 10.901 3.862 10.88C3.396 10.848 3.108 10.8 3 10.736C3.054 10.715 3.38 10.608 3.975 10.416C4.311 10.309 4.512 10.171 4.577 10C4.772 9.435 5.211 8.49 5.894 7.168C6.848 5.723 8.257 5 10.122 5C10.642 5 11.124 5.067 11.569 5.2C12.523 5.488 13 5.968 13 6.64Z" fill="white"/>
</g>
</g>
<defs>
<clipPath id="clip0_870_263">
<rect width="18" height="18" fill="white"/>
</clipPath>
</defs>
</svg>
