<svg width="24" height="24" viewBox="0 0 24 24" xmlns="http://www.w3.org/2000/svg">
    <g fill="none" fill-rule="evenodd">
        <rect stroke="#635F5F" fill="#000" x=".5" y=".5" width="23" height="23" rx="4"/>
        <path d="M17.998 11.069a3.5 3.5 0 0 1-.345.018c-1.263 0-2.44-.68-3.132-1.81v6.166c0 2.517-1.908 4.557-4.26 4.557C7.906 20 6 17.96 6 15.443c0-2.517 1.907-4.558 4.26-4.558.09 0 .176.009.264.015v2.246c-.088-.012-.174-.029-.264-.029-1.2 0-2.174 1.042-2.174 2.326 0 1.285.974 2.326 2.174 2.326 1.202 0 2.262-1.012 2.262-2.297L12.543 5h2.009c.19 1.927 1.642 3.432 3.448 3.573v2.496" fill="#FFF"/>
    </g>
</svg>
