<svg width="24" height="24" viewBox="0 0 24 24" xmlns="http://www.w3.org/2000/svg">
    <g fill="none" fill-rule="evenodd">
        <rect stroke="#635F5F" fill="#000" x=".5" y=".5" width="23" height="23" rx="4"/>
        <path d="M18.667 7.93a5.828 5.828 0 0 1-1.376 1.41l.03.353c-.02 1.861-.692 3.575-2.018 5.143-1.325 1.567-3.253 2.4-5.784 2.497-.778 0-1.52-.107-2.228-.323a8.214 8.214 0 0 1-1.958-.881c.22.02.439.029.658.029.638 0 1.246-.098 1.824-.294a4.979 4.979 0 0 0 1.554-.852 2.73 2.73 0 0 1-2.54-1.88c.159.038.328.058.507.058.26 0 .499-.03.718-.088a2.765 2.765 0 0 1-1.57-.926c-.408-.48-.613-1.053-.613-1.719v-.03c.36.197.768.305 1.226.324a2.65 2.65 0 0 1-.867-.94 2.632 2.632 0 0 1-.329-1.308c0-.48.12-.925.36-1.337a7.618 7.618 0 0 0 2.465 1.969c.967.49 2.028.774 3.184.852a2.102 2.102 0 0 1-.09-.617c.02-.764.29-1.4.808-1.91s1.156-.774 1.913-.793c.837.02 1.515.303 2.033.852a5.439 5.439 0 0 0 1.734-.647 2.73 2.73 0 0 1-1.196 1.499 6.121 6.121 0 0 0 1.555-.44z" fill="#FFF"/>
    </g>
</svg>
